<?xml version="1.0" encoding="utf-8"?>
<!-- Generator: Adobe Illustrator 27.7.0, SVG Export Plug-In . SVG Version: 6.00 Build 0)  -->
<svg version="1.1" id="Layer_1" xmlns="http://www.w3.org/2000/svg" xmlns:xlink="http://www.w3.org/1999/xlink" x="0px" y="0px"
	 viewBox="0 0 401.89 136.56" style="enable-background:new 0 0 401.89 136.56;" xml:space="preserve">
<style type="text/css">
	.st0{fill:#FFFFFF;}
	.st1{fill:url(#SVGID_1_);}
	.st2{fill:url(#SVGID_00000000221260675513030430000000263070065542328450_);}
	.st3{fill:url(#SVGID_00000034064478978830437430000006720278861598146692_);}
	.st4{fill:url(#SVGID_00000088821645335848687970000011891297226770806400_);}
</style>
<g>
	<g>
		<path class="st0" d="M77.22,98.4c-0.45,0-1.06-0.11-1.06-0.89c0-0.76,0.55-0.89,1.06-0.89h2.12c0.8,0,1.39,0.09,2,0.8
			c0.6,0.69,0.68,1.23,0.69,2.12l0.16,6.05c0.02,0.52-0.21,1.04-0.73,1.04c-0.4,0-0.8-0.39-0.79-0.89l-1.06,0.63
			c-0.43,0.26-0.45,0.26-0.95,0.26h-1.48c-0.69,0-1.19-0.09-1.76-0.63c-0.64-0.61-0.8-1.26-0.8-2.19v-0.78
			c0-0.85,0.18-1.39,0.76-1.99c0.53-0.54,1.13-0.67,1.8-0.67h3.32v-0.41c0-1.34-0.26-1.56-1.37-1.56L77.22,98.4L77.22,98.4z
			 M77.2,102.15c-0.42,0-1.03,0.13-1.03,0.78v1.19c0,0.59,0.63,0.72,1,0.72h1.71l1.71-1.02v-0.39c0-0.98-0.24-1.28-1.09-1.28
			C79.5,102.15,77.2,102.15,77.2,102.15z"/>
		<path class="st0" d="M90.77,99.6v5.8c0,0.61-0.11,1.23-0.77,1.23c-0.66,0-0.77-0.61-0.77-1.23v-5.96c0-0.3,0.03-0.85-0.37-0.85
			c-0.18,0-0.29,0.17-0.42,0.3l-0.68,0.72v5.8c0,0.61-0.11,1.23-0.77,1.23c-0.66,0-0.77-0.61-0.77-1.23v-7.52
			c0-0.63,0.15-1.26,0.8-1.26c0.39,0,0.64,0.3,0.74,0.71l0.13-0.11c0.4-0.35,0.64-0.59,1.17-0.59c0.6,0,1.06,0.33,1.42,0.89
			l0.13-0.15c0.48-0.56,0.68-0.74,1.35-0.74c0.52,0,0.98,0.26,1.29,0.73c0.39,0.58,0.35,1.1,0.37,1.78l0.16,6.17
			c0.02,0.63-0.06,1.34-0.76,1.34c-0.63,0-0.76-0.61-0.77-1.21l-0.16-5.89c-0.02-0.32,0.06-0.95-0.36-0.95
			c-0.22,0-0.51,0.45-0.64,0.61L90.77,99.6z"/>
		<path class="st0" d="M99.35,97.91l0.27-0.32c0.52-0.59,0.82-0.99,1.53-0.99h1.71c0.4,0,0.76,0.26,1.14,0.63l0.53,0.52
			c0.61,0.61,0.84,1.11,0.84,2.06v3.58c0,0.95-0.23,1.45-0.84,2.06l-0.53,0.52c-0.37,0.35-0.82,0.63-1.21,0.63h-1.59
			c-0.63,0-1.06-0.45-1.5-0.91l-0.35-0.39v0.11c0,0.58-0.16,1.19-0.77,1.19c-0.66,0-0.77-0.63-0.77-1.24v-11.2
			c0-0.61,0.11-1.23,0.77-1.23c0.66,0,0.77,0.61,0.77,1.23V97.91z M99.35,102.33c0,0.58,0.06,0.8,0.47,1.19l0.89,0.87
			c0.19,0.19,0.43,0.45,0.6,0.45h1.18c0.22,0,0.37-0.06,0.48-0.17l0.68-0.65c0.18-0.17,0.19-0.59,0.19-0.95v-3.16
			c0-0.35-0.08-0.63-0.21-0.74l-0.71-0.63c-0.1-0.09-0.21-0.15-0.37-0.15h-1.08c-0.21,0-0.47,0.13-0.64,0.32l-1,1
			c-0.26,0.24-0.47,0.52-0.47,1.06v1.56H99.35z"/>
		<path class="st0" d="M111.98,98.4c-0.45,0-1.06-0.11-1.06-0.89c0-0.76,0.55-0.89,1.06-0.89h2.12c0.8,0,1.39,0.09,2,0.8
			c0.6,0.69,0.68,1.23,0.69,2.12l0.16,6.05c0.02,0.52-0.21,1.04-0.73,1.04c-0.4,0-0.8-0.39-0.79-0.89l-1.06,0.63
			c-0.43,0.26-0.45,0.26-0.95,0.26h-1.48c-0.69,0-1.19-0.09-1.76-0.63c-0.64-0.61-0.8-1.26-0.8-2.19v-0.78
			c0-0.85,0.18-1.39,0.76-1.99c0.53-0.54,1.13-0.67,1.8-0.67h3.32v-0.41c0-1.34-0.26-1.56-1.37-1.56L111.98,98.4L111.98,98.4z
			 M111.97,102.15c-0.42,0-1.03,0.13-1.03,0.78v1.19c0,0.59,0.63,0.72,1,0.72h1.71l1.71-1.02v-0.39c0-0.98-0.24-1.28-1.09-1.28
			C114.27,102.15,111.97,102.15,111.97,102.15z"/>
		<path class="st0" d="M125.57,104.84h1.16c0.52,0,1.06,0.13,1.06,0.89c0,0.78-0.61,0.89-1.06,0.89h-3.93
			c-0.45,0-1.06-0.11-1.06-0.89c0-0.76,0.55-0.89,1.06-0.89h1.22V94.72h-1.22c-0.45,0-1.06-0.11-1.06-0.89
			c0-0.76,0.55-0.89,1.06-0.89h1.63c0.88,0,1.14,0.19,1.14,1.24V104.84z"/>
		<path class="st0" d="M135.16,98.4c-0.45,0-1.06-0.11-1.06-0.89c0-0.76,0.55-0.89,1.06-0.89h2.12c0.8,0,1.39,0.09,2,0.8
			c0.6,0.69,0.68,1.23,0.69,2.12l0.16,6.05c0.02,0.52-0.21,1.04-0.73,1.04c-0.4,0-0.8-0.39-0.79-0.89l-1.06,0.63
			c-0.43,0.26-0.45,0.26-0.95,0.26h-1.48c-0.69,0-1.19-0.09-1.76-0.63c-0.64-0.61-0.8-1.26-0.8-2.19v-0.78
			c0-0.85,0.18-1.39,0.76-1.99c0.53-0.54,1.13-0.67,1.8-0.67h3.32v-0.41c0-1.34-0.26-1.56-1.37-1.56L135.16,98.4L135.16,98.4z
			 M135.14,102.15c-0.42,0-1.03,0.13-1.03,0.78v1.19c0,0.59,0.63,0.72,1,0.72h1.71l1.71-1.02v-0.39c0-0.98-0.24-1.28-1.09-1.28
			C137.44,102.15,135.14,102.15,135.14,102.15z"/>
		<path class="st0" d="M150.97,107.13c0,0.98,0,1.75-0.63,2.51c-0.63,0.78-1.29,0.78-1.8,0.78h-1.29c-0.43,0-0.95-0.06-1.45-0.5
			c-0.45-0.39-0.88-1.19-0.88-1.86c0-0.48,0.35-0.87,0.76-0.87c0.42,0,0.68,0.26,0.79,0.71c0.16,0.67,0.42,0.74,1,0.74h1.01
			c0.98,0,0.95-0.46,0.95-1.5V98.4h-1.87c-0.45,0-1.06-0.11-1.06-0.89c0-0.76,0.55-0.89,1.06-0.89h2.27c0.88,0,1.14,0.19,1.14,1.24
			L150.97,107.13L150.97,107.13z M148.63,93.01c0-0.63,0.31-0.84,0.72-0.84h0.89c0.42,0,0.72,0.2,0.72,0.84v0.85
			c0,0.63-0.31,0.84-0.72,0.84h-0.89c-0.42,0-0.72-0.2-0.72-0.84V93.01z"/>
		<path class="st0" d="M166.1,98.4c-0.32,0-0.87-0.07-0.87,0.5c0,0.3,0.19,0.41,0.42,0.52l3.86,2.02c1,0.52,1.51,1.24,1.51,2.53
			c0,1.8-1.06,2.66-2.54,2.66h-2.38c-0.8,0-1.35-0.04-1.93-0.56c-0.29-0.26-0.71-0.59-0.71-1.04c0-0.5,0.37-0.89,0.8-0.89
			c0.24,0,0.42,0.09,0.6,0.32c0.27,0.35,0.76,0.39,1.24,0.39h2.09c0.55,0,1.29,0.06,1.29-0.98c0-0.43-0.45-0.71-0.8-0.89l-3.64-1.91
			c-0.85-0.45-1.35-1.02-1.35-2.17c0-1.41,0.97-2.27,2.13-2.27h2.64c0.85,0,1.21,0.06,1.79,0.61c0.29,0.28,0.61,0.5,0.61,1
			s-0.37,0.89-0.79,0.89c-0.29,0-0.47-0.13-0.66-0.37c-0.26-0.32-0.53-0.35-0.95-0.35L166.1,98.4L166.1,98.4z"/>
		<path class="st0" d="M177.65,98.4c-0.45,0-1.06-0.11-1.06-0.89c0-0.76,0.55-0.89,1.06-0.89h2.12c0.8,0,1.39,0.09,2,0.8
			c0.6,0.69,0.68,1.23,0.69,2.12l0.16,6.05c0.02,0.52-0.21,1.04-0.73,1.04c-0.4,0-0.8-0.39-0.79-0.89l-1.06,0.63
			c-0.43,0.26-0.45,0.26-0.95,0.26h-1.48c-0.69,0-1.19-0.09-1.76-0.63c-0.64-0.61-0.8-1.26-0.8-2.19v-0.78
			c0-0.85,0.18-1.39,0.76-1.99c0.53-0.54,1.13-0.67,1.8-0.67h3.32v-0.41c0-1.34-0.26-1.56-1.37-1.56L177.65,98.4L177.65,98.4z
			 M177.63,102.15c-0.42,0-1.03,0.13-1.03,0.78v1.19c0,0.59,0.63,0.72,1,0.72h1.71l1.71-1.02v-0.39c0-0.98-0.24-1.28-1.09-1.28
			C179.93,102.15,177.63,102.15,177.63,102.15z"/>
		<path class="st0" d="M188.19,100.22v5.18c0,0.61-0.11,1.23-0.77,1.23s-0.77-0.61-0.77-1.23v-7.47c0-0.65,0.06-1.32,0.77-1.32
			c0.69,0,0.77,0.67,0.77,1.3v0.2v0.04l1.26-0.95c0.4-0.3,0.84-0.59,1.34-0.59h1.14c0.6,0,0.97,0.19,1.43,0.65
			c0.69,0.69,0.66,1.45,0.69,2.42l0.16,5.61c0.02,0.63-0.06,1.34-0.76,1.34c-0.63,0-0.76-0.61-0.77-1.21l-0.16-5.5
			c-0.03-1.1-0.11-1.52-1.05-1.52h-0.52c-0.16,0-0.32,0.06-0.48,0.17L188.19,100.22z"/>
		<path class="st0" d="M201.44,104.25c-0.36,0-0.61,0-0.84-0.35c-0.18-0.28-0.18-0.48-0.18-0.84v-1.04c0-0.35,0-0.56,0.18-0.83
			c0.23-0.35,0.48-0.35,0.84-0.35h1.16c0.35,0,0.61,0,0.84,0.35c0.18,0.28,0.18,0.48,0.18,0.83v1.04c0,0.35,0,0.56-0.18,0.84
			c-0.23,0.35-0.48,0.35-0.84,0.35H201.44z"/>
		<path class="st0" d="M218.4,98.84v-0.91c0-0.63,0.1-1.32,0.79-1.32c0.55,0,0.76,0.5,0.76,1.08v1.26c0,0.3-0.06,0.45-0.18,0.73
			l-2.3,5.83c-0.15,0.37-0.42,1.11-0.81,1.11h-1c-0.39,0-0.66-0.74-0.8-1.11l-2.3-5.83c-0.11-0.28-0.18-0.43-0.18-0.73v-1.26
			c0-0.58,0.21-1.08,0.76-1.08c0.69,0,0.79,0.69,0.79,1.32v0.91l2.24,5.93L218.4,98.84z"/>
		<path class="st0" d="M226.81,106.63c-0.64,0-0.9,0-1.38-0.48l-0.66-0.67c-0.61-0.63-0.79-1.04-0.79-2.01v-3.44
			c0-0.95,0.11-1.5,0.76-2.14l0.55-0.54c0.72-0.73,1.08-0.74,1.71-0.74h1.42c0.76,0,1.11,0.09,1.71,0.65l0.63,0.58
			c0.71,0.65,0.81,1.34,0.81,2.32v1.43c0,1.02-0.15,1.32-1.06,1.32h-4.96v0.59c0,0.17,0.11,0.39,0.23,0.52l0.39,0.48
			c0.21,0.26,0.51,0.33,1.03,0.33h3.32c0.51,0,1.06,0.13,1.06,0.89c0,0.78-0.61,0.89-1.06,0.89h-3.71V106.63z M225.52,101.13H230
			v-1.08c0-0.33,0.02-0.61-0.19-0.84l-0.6-0.59c-0.19-0.2-0.5-0.22-0.74-0.22h-1.3c-0.29,0-0.53,0-0.79,0.2l-0.53,0.45
			c-0.19,0.17-0.32,0.3-0.32,0.82L225.52,101.13L225.52,101.13z"/>
		<path class="st0" d="M246.39,103.26c0,1-0.03,1.58,1.03,1.58h0.79c0.63,0,0.92-0.06,1.08-0.78c0.1-0.43,0.39-0.72,0.77-0.72
			c0.43,0,0.79,0.39,0.79,0.89s-0.27,1.13-0.53,1.49c-0.56,0.78-1.3,0.91-2.13,0.91h-0.79c-0.77,0-1.45-0.2-2-0.89
			c-0.6-0.76-0.56-1.52-0.56-2.49V98.4h-0.5c-0.45,0-1.06-0.11-1.06-0.89c0-0.76,0.55-0.89,1.06-0.89h0.5V94.8
			c0-0.61,0.11-1.23,0.77-1.23s0.77,0.61,0.77,1.23v1.82h2.59c0.51,0,1.06,0.13,1.06,0.89c0,0.78-0.61,0.89-1.06,0.89h-2.59
			L246.39,103.26L246.39,103.26z"/>
		<path class="st0" d="M259.46,104.84h1.16c0.52,0,1.06,0.13,1.06,0.89c0,0.78-0.61,0.89-1.06,0.89h-3.93
			c-0.45,0-1.06-0.11-1.06-0.89c0-0.76,0.55-0.89,1.06-0.89h1.22V98.4h-1.22c-0.45,0-1.06-0.11-1.06-0.89
			c0-0.76,0.55-0.89,1.06-0.89h1.63c0.88,0,1.14,0.19,1.14,1.24L259.46,104.84L259.46,104.84z M257.12,93.01
			c0-0.63,0.31-0.84,0.73-0.84h0.88c0.42,0,0.73,0.2,0.73,0.84v0.85c0,0.63-0.31,0.84-0.73,0.84h-0.88c-0.42,0-0.73-0.2-0.73-0.84
			V93.01z"/>
		<path class="st0" d="M266.46,100.76c0-1.1,0.18-1.63,0.92-2.34l1.14-1.1c0.73-0.69,1.1-0.71,2-0.71h2.45
			c0.51,0,1.06,0.13,1.06,0.89c0,0.78-0.61,0.89-1.06,0.89h-2.72c-0.31,0-0.61,0.19-0.89,0.45l-0.93,0.91
			c-0.24,0.22-0.42,0.41-0.42,0.76v2.21c0,0.35,0.18,0.54,0.42,0.76l0.93,0.91c0.27,0.26,0.58,0.45,0.89,0.45h2.72
			c0.45,0,1.06,0.11,1.06,0.89c0,0.76-0.55,0.89-1.06,0.89h-2.45c-0.9,0-1.27-0.02-2-0.71l-1.14-1.1c-0.74-0.71-0.92-1.24-0.92-2.34
			V100.76z"/>
		<path class="st0" d="M281.25,104.25c-0.36,0-0.61,0-0.84-0.35c-0.18-0.28-0.18-0.48-0.18-0.84v-1.04c0-0.35,0-0.56,0.18-0.83
			c0.23-0.35,0.48-0.35,0.84-0.35h1.16c0.35,0,0.61,0,0.84,0.35c0.18,0.28,0.18,0.48,0.18,0.83v1.04c0,0.35,0,0.56-0.18,0.84
			c-0.23,0.35-0.48,0.35-0.84,0.35H281.25z"/>
		<path class="st0" d="M298.08,104.84h1.16c0.52,0,1.06,0.13,1.06,0.89c0,0.78-0.61,0.89-1.06,0.89h-3.93
			c-0.45,0-1.06-0.11-1.06-0.89c0-0.76,0.55-0.89,1.06-0.89h1.22V94.72h-1.22c-0.45,0-1.06-0.11-1.06-0.89
			c0-0.76,0.55-0.89,1.06-0.89h1.63c0.88,0,1.14,0.19,1.14,1.24L298.08,104.84L298.08,104.84z"/>
		<path class="st0" d="M308.19,103.26c0,1-0.03,1.58,1.03,1.58h0.79c0.63,0,0.92-0.06,1.08-0.78c0.1-0.43,0.39-0.72,0.77-0.72
			c0.43,0,0.79,0.39,0.79,0.89s-0.27,1.13-0.53,1.49c-0.56,0.78-1.3,0.91-2.13,0.91h-0.79c-0.77,0-1.45-0.2-2-0.89
			c-0.6-0.76-0.56-1.52-0.56-2.49V98.4h-0.5c-0.45,0-1.06-0.11-1.06-0.89c0-0.76,0.55-0.89,1.06-0.89h0.5V94.8
			c0-0.61,0.11-1.23,0.77-1.23s0.77,0.61,0.77,1.23v1.82h2.59c0.51,0,1.06,0.13,1.06,0.89c0,0.78-0.61,0.89-1.06,0.89h-2.59v4.86
			H308.19z"/>
		<path class="st0" d="M320.9,96.61c0.53,0,0.97,0.33,1.53,0.99l0.26,0.32v-3.75c0-0.61,0.11-1.23,0.77-1.23s0.77,0.61,0.77,1.23
			v11.22c0,0.61-0.11,1.24-0.77,1.24c-0.61,0-0.77-0.59-0.77-1.19v-0.11l-0.34,0.39c-0.48,0.52-1.01,0.91-1.48,0.91h-1.5
			c-0.51,0-1.1-0.41-1.32-0.63l-0.53-0.52c-0.64-0.63-0.85-1.11-0.85-2.06v-3.58c0-0.95,0.21-1.43,0.85-2.06l0.53-0.52
			c0.48-0.48,0.84-0.63,1.48-0.63h1.37V96.61z M318.21,102.71c0,0.5,0,1.13,0.24,1.36l0.47,0.43c0.19,0.19,0.39,0.35,0.58,0.35h1.1
			c0.19,0,0.47-0.15,0.76-0.45l0.88-0.87c0.23-0.22,0.45-0.45,0.45-0.78v-2.25c0-0.33-0.23-0.56-0.45-0.78l-0.88-0.87
			c-0.29-0.3-0.56-0.45-0.76-0.45h-1.1c-0.19,0-0.39,0.17-0.58,0.35l-0.47,0.43c-0.24,0.22-0.24,0.85-0.24,1.36V102.71z"/>
		<path class="st0" d="M331.46,104.25c-0.36,0-0.61,0-0.84-0.35c-0.18-0.28-0.18-0.48-0.18-0.84v-1.04c0-0.35,0-0.56,0.18-0.83
			c0.23-0.35,0.48-0.35,0.84-0.35h1.16c0.35,0,0.61,0,0.84,0.35c0.18,0.28,0.18,0.48,0.18,0.83v1.04c0,0.35,0,0.56-0.18,0.84
			c-0.23,0.35-0.48,0.35-0.84,0.35H331.46z"/>
		<path class="st0" d="M348.08,99.18c-0.31-0.22-0.87-0.52-1.59-0.52c-0.84,0-1.3,0.56-1.3,1.23c0,0.74,0.47,1.08,1.48,1.52
			c1.35,0.59,2.04,1.37,2.04,2.71c0,1.32-0.74,2.32-2.08,2.6l-0.45,0.84c0.6,0.09,1.13,0.58,1.13,1.28c0,1.1-0.77,1.5-1.67,1.5
			c-0.39,0-0.82-0.13-1.1-0.32l0.24-0.8c0.26,0.19,0.58,0.28,0.87,0.28c0.35,0,0.69-0.15,0.69-0.59c-0.02-0.48-0.5-0.71-1.26-0.78
			l0.64-1.32c-0.82-0.02-1.59-0.24-2.13-0.61l0.35-1.25c0.42,0.32,1.16,0.65,1.87,0.65c1.03,0,1.51-0.59,1.51-1.34
			c0-0.78-0.4-1.21-1.45-1.65c-1.4-0.57-2.06-1.47-2.06-2.54c0-1.45,1.01-2.64,2.69-2.64c0.79,0,1.48,0.26,1.92,0.56L348.08,99.18z"
			/>
		<path class="st0" d="M354.47,103.26c0,1-0.03,1.58,1.03,1.58h0.79c0.63,0,0.92-0.06,1.08-0.78c0.1-0.43,0.39-0.72,0.77-0.72
			c0.43,0,0.79,0.39,0.79,0.89s-0.27,1.13-0.53,1.49c-0.56,0.78-1.3,0.91-2.13,0.91h-0.79c-0.77,0-1.45-0.2-2-0.89
			c-0.6-0.76-0.56-1.52-0.56-2.49V98.4h-0.5c-0.45,0-1.06-0.11-1.06-0.89c0-0.76,0.55-0.89,1.06-0.89h0.5V94.8
			c0-0.61,0.11-1.23,0.77-1.23s0.77,0.61,0.77,1.23v1.82h2.59c0.51,0,1.06,0.13,1.06,0.89c0,0.78-0.61,0.89-1.06,0.89h-2.59v4.86
			H354.47z"/>
		<path class="st0" d="M367.54,104.84h1.16c0.52,0,1.06,0.13,1.06,0.89c0,0.78-0.61,0.89-1.06,0.89h-3.93
			c-0.45,0-1.06-0.11-1.06-0.89c0-0.76,0.55-0.89,1.06-0.89h1.22V98.4h-1.22c-0.45,0-1.06-0.11-1.06-0.89
			c0-0.76,0.55-0.89,1.06-0.89h1.63c0.88,0,1.14,0.19,1.14,1.24L367.54,104.84L367.54,104.84z M365.2,93.01
			c0-0.63,0.31-0.84,0.73-0.84h0.88c0.42,0,0.73,0.2,0.73,0.84v0.85c0,0.63-0.31,0.84-0.73,0.84h-0.88c-0.42,0-0.73-0.2-0.73-0.84
			V93.01z"/>
		<path class="st0" d="M377.74,104.25c-0.36,0-0.61,0-0.84-0.35c-0.18-0.28-0.18-0.48-0.18-0.84v-1.04c0-0.35,0-0.56,0.18-0.83
			c0.23-0.35,0.48-0.35,0.84-0.35h1.16c0.35,0,0.61,0,0.84,0.35c0.18,0.28,0.18,0.48,0.18,0.83v1.04c0,0.35,0,0.56-0.18,0.84
			c-0.23,0.35-0.48,0.35-0.84,0.35H377.74z"/>
	</g>
	<path class="st0" d="M114.08,69.95c0,3.59-0.12,5.65,3.68,5.65h2.82c2.25,0,3.28-0.2,3.86-2.79c0.35-1.53,1.38-2.59,2.76-2.59
		c1.55,0,2.82,1.39,2.82,3.19s-0.98,4.05-1.9,5.32c-2.02,2.79-4.66,3.26-7.6,3.26h-2.82c-2.76,0-5.18-0.73-7.14-3.19
		c-2.13-2.72-2.01-5.45-2.01-8.9V52.54h-1.78c-1.61,0-3.8-0.4-3.8-3.19c0-2.72,1.96-3.19,3.8-3.19h1.78v-6.51
		c0-2.19,0.4-4.39,2.76-4.39s2.76,2.19,2.76,4.39v6.51h9.27c1.84,0,3.8,0.47,3.8,3.19c0,2.79-2.19,3.19-3.8,3.19h-9.27L114.08,69.95
		L114.08,69.95z"/>
	<path class="st0" d="M145.82,81.97c-2.3,0-3.22,0-4.95-1.73l-2.36-2.39c-2.19-2.26-2.82-3.72-2.82-7.18V58.38
		c0-3.39,0.4-5.38,2.7-7.64l1.96-1.93c2.59-2.59,3.86-2.66,6.1-2.66h5.06c2.71,0,3.97,0.33,6.1,2.33l2.24,2.06
		c2.53,2.33,2.88,4.78,2.88,8.31v5.12c0,3.65-0.52,4.72-3.8,4.72H141.2v2.13c0,0.6,0.4,1.39,0.81,1.86l1.38,1.73
		c0.75,0.93,1.84,1.2,3.68,1.2h11.86c1.84,0,3.8,0.46,3.8,3.19c0,2.79-2.19,3.19-3.8,3.19h-13.11V81.97z M141.21,62.31h16v-3.85
		c0-1.2,0.06-2.19-0.69-2.99l-2.13-2.13c-0.69-0.73-1.78-0.8-2.65-0.8h-4.66c-1.04,0-1.9,0-2.82,0.73l-1.9,1.59
		c-0.69,0.6-1.15,1.06-1.15,2.92V62.31z"/>
	<path class="st0" d="M184.7,56.86v20.73c0,2.19-0.4,4.39-2.76,4.39s-2.76-2.19-2.76-4.39V56.26c0-1.06,0.12-3.06-1.32-3.06
		c-0.63,0-1.04,0.6-1.5,1.06l-2.42,2.59v20.73c0,2.19-0.4,4.39-2.76,4.39s-2.76-2.19-2.76-4.39v-26.9c0-2.26,0.52-4.52,2.88-4.52
		c1.38,0,2.3,1.06,2.65,2.53l0.46-0.4c1.44-1.26,2.3-2.13,4.2-2.13c2.13,0,3.8,1.2,5.07,3.19l0.46-0.53
		c1.73-1.99,2.42-2.66,4.84-2.66c1.84,0,3.51,0.93,4.61,2.59c1.38,2.06,1.27,3.92,1.32,6.38l0.58,22.06
		c0.06,2.26-0.23,4.78-2.71,4.78c-2.24,0-2.7-2.19-2.76-4.32l-0.58-21.06c-0.06-1.13,0.23-3.39-1.27-3.39
		c-0.81,0-1.84,1.59-2.3,2.19L184.7,56.86z"/>
	<path class="st0" d="M210.3,52.69c-1.61,0-3.8-0.4-3.8-3.19c0-2.72,1.96-3.19,3.8-3.19h7.6c2.88,0,4.95,0.33,7.14,2.86
		c2.13,2.46,2.42,4.39,2.47,7.57l0.58,21.66c0.06,1.86-0.75,3.72-2.59,3.72c-1.44,0-2.88-1.39-2.82-3.19l-3.8,2.26
		c-1.55,0.93-1.61,0.93-3.4,0.93h-5.3c-2.47,0-4.26-0.33-6.27-2.26c-2.3-2.19-2.88-4.52-2.88-7.84v-2.79c0-3.06,0.63-4.98,2.7-7.11
		c1.9-1.93,4.03-2.39,6.45-2.39h11.86v-1.46c0-4.78-0.92-5.58-4.89-5.58C217.15,52.69,210.3,52.69,210.3,52.69z M210.24,66.11
		c-1.5,0-3.68,0.46-3.68,2.79v4.25c0,2.13,2.24,2.59,3.57,2.59h6.1l6.1-3.65v-1.4c0-3.52-0.86-4.58-3.91-4.58
		C218.42,66.11,210.24,66.11,210.24,66.11z"/>
	<path class="st0" d="M233.51,58.05c0-4.25,0.75-5.72,3.51-8.31c2.7-2.59,3.97-3.59,7.83-3.59h4.37c3.86,0,5.12,1,7.83,3.59
		c2.76,2.59,3.51,4.05,3.51,8.31v12.03c0,4.19-0.92,5.78-3.8,8.57c-2.88,2.79-4.03,3.32-7.54,3.32h-4.37
		c-3.51,0-4.66-0.53-7.54-3.32c-2.88-2.79-3.8-4.39-3.8-8.57L233.51,58.05L233.51,58.05z M239.04,70.08c0,1.33,0.4,2.19,2.01,3.79
		c1.21,1.2,2.07,1.73,3.8,1.73h4.37c1.73,0,2.59-0.53,3.8-1.73c1.61-1.59,2.01-2.46,2.01-3.79V58.05c0-1.33-0.4-2.19-2.01-3.79
		c-1.21-1.2-2.07-1.73-3.8-1.73h-4.37c-1.73,0-2.59,0.53-3.8,1.73c-1.61,1.59-2.01,2.46-2.01,3.79V70.08z"/>
	<path class="st0" d="M270.59,52.54h-1.55c-1.61,0-3.8-0.4-3.8-3.19c0-2.72,1.96-3.19,3.8-3.19h1.55V45.3c0-3.66,0.17-6.31,2.65-9.1
		c2.65-2.92,5.12-3.19,8.52-3.19h3.74c1.9,0,4.03,0.2,4.03,3.19c0,2.72-1.9,3.19-3.8,3.19h-4.32c-3.74,0-5.3,0.86-5.3,5.51v1.26H281
		c1.84,0,3.8,0.47,3.8,3.19c0,2.79-2.19,3.19-3.8,3.19h-4.89v25.05c0,2.19-0.4,4.39-2.76,4.39s-2.76-2.19-2.76-4.39L270.59,52.54
		L270.59,52.54z"/>
	<path class="st0" d="M297.86,52.54c-1.15,0-3.11-0.27-3.11,1.79c0,1.06,0.69,1.46,1.5,1.86l13.81,7.24
		c3.57,1.86,5.41,4.45,5.41,9.04c0,6.45-3.8,9.5-9.09,9.5h-8.52c-2.88,0-4.84-0.13-6.91-1.99c-1.04-0.93-2.53-2.13-2.53-3.72
		c0-1.79,1.32-3.19,2.88-3.19c0.86,0,1.5,0.33,2.13,1.13c0.98,1.26,2.7,1.39,4.43,1.39h7.48c1.96,0,4.61,0.2,4.61-3.52
		c0-1.53-1.61-2.53-2.88-3.19l-13.01-6.84c-3.05-1.59-4.84-3.65-4.84-7.77c0-5.05,3.45-8.11,7.6-8.11h9.44
		c3.05,0,4.32,0.2,6.39,2.19c1.04,1,2.19,1.79,2.19,3.59c0,1.79-1.32,3.19-2.82,3.19c-1.04,0-1.67-0.47-2.36-1.33
		c-0.92-1.13-1.9-1.26-3.39-1.26C306.27,52.54,297.86,52.54,297.86,52.54z"/>
	<path class="st0" d="M331.27,81.97c-2.3,0-3.22,0-4.95-1.73l-2.36-2.39c-2.19-2.26-2.82-3.72-2.82-7.18V58.38
		c0-3.39,0.4-5.38,2.7-7.64l1.96-1.93c2.59-2.59,3.86-2.66,6.1-2.66h5.07c2.7,0,3.97,0.33,6.1,2.33l2.24,2.06
		c2.53,2.33,2.88,4.78,2.88,8.31v5.12c0,3.65-0.52,4.72-3.8,4.72h-17.73v2.13c0,0.6,0.4,1.39,0.81,1.86l1.38,1.73
		c0.75,0.93,1.84,1.2,3.68,1.2h11.86c1.84,0,3.8,0.46,3.8,3.19c0,2.79-2.19,3.19-3.8,3.19h-13.12V81.97z M326.67,62.31h16v-3.85
		c0-1.2,0.06-2.19-0.69-2.99l-2.13-2.13c-0.69-0.73-1.78-0.8-2.65-0.8h-4.66c-1.04,0-1.9,0-2.82,0.73l-1.9,1.59
		c-0.69,0.6-1.15,1.06-1.15,2.92V62.31z"/>
	<path class="st0" d="M363.97,69.95c0,3.59-0.12,5.65,3.68,5.65h2.82c2.25,0,3.28-0.2,3.86-2.79c0.35-1.53,1.38-2.59,2.76-2.59
		c1.55,0,2.82,1.39,2.82,3.19s-0.98,4.05-1.9,5.32c-2.02,2.79-4.66,3.26-7.6,3.26h-2.82c-2.76,0-5.18-0.73-7.14-3.19
		c-2.13-2.72-2.01-5.45-2.01-8.9V52.54h-1.78c-1.61,0-3.8-0.4-3.8-3.19c0-2.72,1.96-3.19,3.8-3.19h1.78v-6.51
		c0-2.19,0.4-4.39,2.76-4.39c2.36,0,2.76,2.19,2.76,4.39v6.51h9.27c1.84,0,3.8,0.47,3.8,3.19c0,2.79-2.19,3.19-3.8,3.19h-9.27v17.41
		H363.97z"/>
	<g>
		
			<linearGradient id="SVGID_1_" gradientUnits="userSpaceOnUse" x1="498.0568" y1="-6373.2993" x2="534.08" y2="-6373.2993" gradientTransform="matrix(1 0 -0.1228 1 -1258.7169 6447.8896)">
			<stop  offset="1" style="stop-color:#FFED00"/>
			<stop  offset="1" style="stop-color:#DCDE4C"/>
			<stop  offset="1" style="stop-color:#A8CF87"/>
			<stop  offset="1" style="stop-color:#6DC0AB"/>
			<stop  offset="1" style="stop-color:#00B4C2"/>
			<stop  offset="1" style="stop-color:#00AAD2"/>
			<stop  offset="1" style="stop-color:#00A4DC"/>
			<stop  offset="1" style="stop-color:#00A0E2"/>
			<stop  offset="1" style="stop-color:#009FE3"/>
		</linearGradient>
		<path class="st1" d="M23.65,78.29c-1.21-0.81-1.83-2.42-1.61-4.18l2.92-23.74c-0.22,1.76,0.4,3.37,1.61,4.18l29.6,19.98
			c0.53,0.36,1.14,0.54,1.77,0.54l-2.91,23.74c-0.63,0-1.24-0.18-1.77-0.54L23.65,78.29z"/>
		
			<linearGradient id="SVGID_00000026864454828515027680000006128727955740277644_" gradientUnits="userSpaceOnUse" x1="534.0673" y1="-6397.5195" x2="570.0858" y2="-6397.5195" gradientTransform="matrix(1 0 -0.1228 1 -1258.7169 6447.8896)">
			<stop  offset="0" style="stop-color:#009FE3"/>
			<stop  offset="1" style="stop-color:#009FE3"/>
		</linearGradient>
		<path style="fill:url(#SVGID_00000026864454828515027680000006128727955740277644_);" d="M92.41,70.41L62.8,50.43
			c-0.53-0.36-1.14-0.54-1.77-0.54l2.91-23.74c0.63,0,1.24,0.18,1.77,0.54l29.6,19.98c1.21,0.81,1.83,2.43,1.61,4.18l-2.91,23.74
			C94.23,72.83,93.61,71.22,92.41,70.41z"/>
		
			<linearGradient id="SVGID_00000005984665019233182110000003977809005210499497_" gradientUnits="userSpaceOnUse" x1="-3028.7471" y1="-1400.5542" x2="-2980.3071" y2="-1400.5542" gradientTransform="matrix(-0.1228 1 -1 0 -1693.4951 3079.1172)">
			<stop  offset="1" style="stop-color:#E6007E"/>
			<stop  offset="1" style="stop-color:#DA5284"/>
			<stop  offset="1" style="stop-color:#CE7F81"/>
			<stop  offset="1" style="stop-color:#C09B72"/>
			<stop  offset="1" style="stop-color:#B3AB5C"/>
			<stop  offset="1" style="stop-color:#A7B645"/>
			<stop  offset="1" style="stop-color:#9EBC33"/>
			<stop  offset="1" style="stop-color:#97C025"/>
			<stop  offset="1" style="stop-color:#95C11F"/>
		</linearGradient>
		<path style="fill:url(#SVGID_00000005984665019233182110000003977809005210499497_);" d="M91.44,78.29L56.93,98.27
			c-0.62,0.36-1.27,0.54-1.9,0.54l2.91-23.74c0.63,0,1.29-0.18,1.91-0.54l34.51-19.98c1.41-0.81,2.42-2.42,2.64-4.18l-2.91,23.74
			C93.86,75.87,92.85,77.48,91.44,78.29z"/>
		
			<radialGradient id="SVGID_00000031165336014428107960000011863112842755113902_" cx="52.0532" cy="158.0746" r="5.3473" fx="55.9818" fy="154.447" gradientTransform="matrix(1.2893 0 0 -1.2893 -32.0182 256.3685)" gradientUnits="userSpaceOnUse">
			<stop  offset="0" style="stop-color:#000000"/>
			<stop  offset="1" style="stop-color:#000000"/>
		</radialGradient>
		<path style="fill:url(#SVGID_00000031165336014428107960000011863112842755113902_);" d="M24.61,70.41
			c-1.41,0.81-2.42,2.43-2.64,4.18l2.91-23.74c0.22-1.76,1.23-3.37,2.64-4.18l34.51-19.98c0.62-0.36,1.27-0.54,1.91-0.54
			l-2.91,23.74c-0.63,0-1.29,0.18-1.91,0.54L24.61,70.41z"/>
	</g>
</g>
</svg>
